<svg xmlns="http://www.w3.org/2000/svg" viewBox="0 0 1440 320">
  <path fill="#ffe900" fill-opacity="1"
    d="M0,224L30,224C60,224,120,224,180,229.3C240,235,300,245,360,256C420,267,480,277,540,288C600,299,660,309,720,293.3C780,277,840,235,900,186.7C960,139,1020,85,1080,85.3C1140,85,1200,139,1260,176C1320,213,1380,235,1410,245.3L1440,256L1440,320L1410,320C1380,320,1320,320,1260,320C1200,320,1140,320,1080,320C1020,320,960,320,900,320C840,320,780,320,720,320C660,320,600,320,540,320C480,320,420,320,360,320C300,320,240,320,180,320C120,320,60,320,30,320L0,320Z">
  </path>
</svg>